<svg xmlns="http://www.w3.org/2000/svg" xmlns:xlink="http://www.w3.org/1999/xlink" style="margin:auto;background:#eeeeee;display:block;z-index:1;position:relative" width="1084" height="322" preserveAspectRatio="xMidYMid" viewBox="0 0 1084 322">
	<defs>
		<pattern id="pid-0.6519998159041709" x="0" y="0" width="409.6" height="409.6" patternUnits="userSpaceOnUse">
			<g transform="scale(1.6)">
				<defs>
					<g id="id-0.10001395614851405">
						<!--Generator: Adobe Illustrator 21.0.0, SVG Export Plug-In . SVG Version: 6.00 Build 0)-->
						<style type="text/css">.st1{fill:none;stroke-width:4;stroke-miterlimit:10;stroke:#333}.st2{fill:#333}.st36{fill:#77a4bd}</style>
						<g>
							<path class="st1" d="M71.67,92.5H28.33c-1.773,0-3.21-1.437-3.21-3.21V10.71c0-1.773,1.437-3.21,3.21-3.21H71.67 c1.773,0,3.21,1.437,3.21,3.21v78.58C74.88,91.063,73.442,92.5,71.67,92.5z" data-stroke="c1" style="stroke: rgb(51, 51, 51);"></path>
							<line class="st1" x1="25.12" y1="70" x2="74.88" y2="70" data-stroke="c1" style="stroke: rgb(51, 51, 51);"></line>
							<circle class="st2" cx="50" cy="81.667" r="6.667" data-fill="c1" style="fill: rgb(51, 51, 51);"></circle>
						</g>
						<path class="st36" d="M61.909,46.036c-0.065-0.089-0.152-0.153-0.225-0.233V26l-23.167,3v18.855 c-0.831,0.198-1.676,0.565-2.457,1.14c-2.407,1.771-3.289,4.662-1.969,6.455c1.32,1.794,4.342,1.812,6.749,0.041 c2.407-1.771,3.289-4.662,1.969-6.455c-0.084-0.115-0.194-0.201-0.292-0.302V36.5l15.167-2v10.338 c-0.853,0.193-1.722,0.566-2.524,1.157c-2.407,1.771-3.289,4.662-1.969,6.455c1.32,1.794,4.341,1.812,6.749,0.041 C62.347,50.719,63.229,47.829,61.909,46.036z" data-fill="c2" style="fill: rgb(119, 164, 189);"></path>
						<metadata xmlns:d="https://loading.io/stock/">
							<d:name>ringtone</d:name>
							<d:tags>mobile,phone,sound,music,podcast,ipod,walkman,radio,player,ringtone,communication</d:tags>
							<d:license>by</d:license>
							<d:slug>2xiiv</d:slug>
						</metadata>
					</g>
				</defs>

				<!-- Generator: Adobe Illustrator 21.0.0, SVG Export Plug-In . SVG Version: 6.00 Build 0)  -->
				<g data-idx="0" data-dup="" dx="-128" dy="-128" style="transform-origin: -43.697px -33.235px; animation: 1s linear 0s infinite normal forwards running beat">
					<g transform="translate(-128,-128)">
						<polygon fill="#B3B4B4" points="95.261,98.953 73.345,96.2 74.22,90.577 94.461,93.724 " data-fill="c3" style="fill: rgb(179, 180, 180);"></polygon>
					</g>
				</g>
				<g data-idx="0" data-dup="" dx="128" dy="-128" style="transform-origin: 212.303px -33.235px; animation: 1s linear 0s infinite normal forwards running beat">
					<g transform="translate(128,-128)">
						<polygon fill="#B3B4B4" points="95.261,98.953 73.345,96.2 74.22,90.577 94.461,93.724 " data-fill="c3" style="fill: rgb(179, 180, 180);"></polygon>
					</g>
				</g>
				<g data-idx="1" data-dup="" dx="-128" dy="-128" style="transform-origin: -89.899px 85.4716px; animation: 1s linear 0s infinite normal forwards running beat">
					<g transform="translate(-128,-128)">
						<path fill="#B3B4B4" d="M38.105,224.49c-0.05,0-0.099,0-0.149-0.001c-2.943-0.039-5.694-1.221-7.748-3.33
		c-4.239-4.352-4.147-11.342,0.205-15.581c2.108-2.054,4.884-3.157,7.833-3.124c2.943,0.039,5.694,1.222,7.748,3.33
		c4.239,4.352,4.147,11.342-0.205,15.58C43.716,223.383,40.992,224.49,38.105,224.49z M38.098,207.494
		c-1.567,0-3.044,0.6-4.169,1.695c-2.361,2.3-2.411,6.092-0.111,8.453c1.114,1.144,2.607,1.785,4.204,1.806
		c1.609,0.014,3.106-0.581,4.25-1.695c2.361-2.3,2.411-6.092,0.112-8.453l0,0c-1.114-1.144-2.607-1.785-4.204-1.806
		C38.152,207.494,38.125,207.494,38.098,207.494z" data-fill="c3" style="fill: rgb(179, 180, 180);"></path>
					</g>
				</g>
				<g data-idx="1" data-dup="" dx="128" dy="-128" style="transform-origin: 166.101px 85.4716px; animation: 1s linear 0s infinite normal forwards running beat">
					<g transform="translate(128,-128)">
						<path fill="#B3B4B4" d="M38.105,224.49c-0.05,0-0.099,0-0.149-0.001c-2.943-0.039-5.694-1.221-7.748-3.33
		c-4.239-4.352-4.147-11.342,0.205-15.581c2.108-2.054,4.884-3.157,7.833-3.124c2.943,0.039,5.694,1.222,7.748,3.33
		c4.239,4.352,4.147,11.342-0.205,15.58C43.716,223.383,40.992,224.49,38.105,224.49z M38.098,207.494
		c-1.567,0-3.044,0.6-4.169,1.695c-2.361,2.3-2.411,6.092-0.111,8.453c1.114,1.144,2.607,1.785,4.204,1.806
		c1.609,0.014,3.106-0.581,4.25-1.695c2.361-2.3,2.411-6.092,0.112-8.453l0,0c-1.114-1.144-2.607-1.785-4.204-1.806
		C38.152,207.494,38.125,207.494,38.098,207.494z" data-fill="c3" style="fill: rgb(179, 180, 180);"></path>
					</g>
				</g>
				<g data-idx="2" data-dup="" dx="-128" dy="-128" style="transform-origin: 106.49px -80.4995px; animation: 1s linear 0s infinite normal forwards running beat">
					<g transform="translate(-128,-128)">
						<ellipse transform="matrix(0.7249 -0.6888 0.6888 0.7249 31.7828 174.5914)" fill="#B3B4B4" cx="234.5" cy="47.5" rx="4.4" ry="4.4" data-fill="c3" style="fill: rgb(179, 180, 180);"></ellipse>
					</g>
				</g>
				<g data-idx="2" data-dup="" dx="128" dy="-128" style="transform-origin: 362.49px -80.4995px; animation: 1s linear 0s infinite normal forwards running beat">
					<g transform="translate(128,-128)">
						<ellipse transform="matrix(0.7249 -0.6888 0.6888 0.7249 31.7828 174.5914)" fill="#B3B4B4" cx="234.5" cy="47.5" rx="4.4" ry="4.4" data-fill="c3" style="fill: rgb(179, 180, 180);"></ellipse>
					</g>
				</g>
				<g data-idx="3" data-dup="" dx="-128" dy="-128" style="transform-origin: 28.5333px 18.653px; animation: 1s linear 0s infinite normal forwards running beat">
					<g transform="translate(-128,-128)">
						<path fill="#B3B4B4" d="M156.299,159.176l-1.714-5.053c3.929-1.333,6.042-5.614,4.709-9.543c-0.645-1.903-1.994-3.442-3.796-4.331
		c-1.803-0.89-3.844-1.024-5.747-0.378l-1.714-5.053c3.254-1.103,6.741-0.874,9.822,0.646c3.08,1.52,5.385,4.149,6.488,7.402
		C166.625,149.582,163.015,156.898,156.299,159.176z" data-fill="c3" style="fill: rgb(179, 180, 180);"></path>
					</g>
				</g>
				<g data-idx="3" data-dup="" dx="128" dy="-128" style="transform-origin: 284.533px 18.653px; animation: 1s linear 0s infinite normal forwards running beat">
					<g transform="translate(128,-128)">
						<path fill="#B3B4B4" d="M156.299,159.176l-1.714-5.053c3.929-1.333,6.042-5.614,4.709-9.543c-0.645-1.903-1.994-3.442-3.796-4.331
		c-1.803-0.89-3.844-1.024-5.747-0.378l-1.714-5.053c3.254-1.103,6.741-0.874,9.822,0.646c3.08,1.52,5.385,4.149,6.488,7.402
		C166.625,149.582,163.015,156.898,156.299,159.176z" data-fill="c3" style="fill: rgb(179, 180, 180);"></path>
					</g>
				</g>
				<g data-idx="4" data-dup="" dx="-128" dy="-128" style="transform-origin: -25.5058px 21.4949px; animation: 1s linear 0s infinite normal forwards running beat">
					<g transform="translate(-128,-128)">
						<ellipse transform="matrix(0.7249 -0.6888 0.6888 0.7249 -74.7837 111.7244)" fill="#B3B4B4" cx="102.5" cy="149.5" rx="4.4" ry="4.4" data-fill="c3" style="fill: rgb(179, 180, 180);"></ellipse>
					</g>
				</g>
				<g data-idx="4" data-dup="" dx="128" dy="-128" style="transform-origin: 230.494px 21.4949px; animation: 1s linear 0s infinite normal forwards running beat">
					<g transform="translate(128,-128)">
						<ellipse transform="matrix(0.7249 -0.6888 0.6888 0.7249 -74.7837 111.7244)" fill="#B3B4B4" cx="102.5" cy="149.5" rx="4.4" ry="4.4" data-fill="c3" style="fill: rgb(179, 180, 180);"></ellipse>
					</g>
				</g>
				<g data-idx="5" data-dup="" dx="-128" dy="-128" style="transform-origin: 114.171px 116.691px; animation: 1s linear 0s infinite normal forwards running beat">
					<g transform="translate(-128,-128)">
						<polygon fill="#B3B4B4" points="231.486,249.178 247.065,235.877 252.857,238.786 235.18,253.505 " data-fill="c3" style="fill: rgb(179, 180, 180);"></polygon>
					</g>
				</g>
				<g data-idx="5" data-dup="" dx="128" dy="-128" style="transform-origin: 370.171px 116.691px; animation: 1s linear 0s infinite normal forwards running beat">
					<g transform="translate(128,-128)">
						<polygon fill="#B3B4B4" points="231.486,249.178 247.065,235.877 252.857,238.786 235.18,253.505 " data-fill="c3" style="fill: rgb(179, 180, 180);"></polygon>
					</g>
				</g>
				<g data-idx="6" data-dup="" dx="-128" dy="-128" style="transform-origin: -20.197px -96.9315px; animation: 1s linear 0s infinite normal forwards running beat">
					<g transform="translate(-128,-128)">
						<polygon fill="#B3B4B4" points="115.367,21.954 103.961,43.014 100.239,36.891 110.431,19.123 " data-fill="c3" style="fill: rgb(179, 180, 180);"></polygon>
					</g>
				</g>
				<g data-idx="6" data-dup="" dx="128" dy="-128" style="transform-origin: 235.803px -96.9315px; animation: 1s linear 0s infinite normal forwards running beat">
					<g transform="translate(128,-128)">
						<polygon fill="#B3B4B4" points="115.367,21.954 103.961,43.014 100.239,36.891 110.431,19.123 " data-fill="c3" style="fill: rgb(179, 180, 180);"></polygon>
					</g>
				</g>
				<g data-idx="7" data-dup="" dx="-128" dy="-128" style="transform-origin: 94.1px -7.15031px; animation: 1s linear 0s infinite normal forwards running beat">
					<g transform="translate(-128,-128)">
						<path fill="#B3B4B4" d="M222.104,130.57c-0.044,0-0.088,0-0.132-0.001c-2.596-0.034-5.024-1.077-6.835-2.937
		c-3.74-3.84-3.659-10.006,0.181-13.746c1.86-1.812,4.308-2.785,6.91-2.756c2.596,0.034,5.024,1.078,6.835,2.938
		c3.74,3.839,3.659,10.006-0.181,13.745C227.054,129.594,224.651,130.57,222.104,130.57z M222.099,115.576
		c-1.382,0-2.686,0.53-3.678,1.496c-2.083,2.029-2.127,5.374-0.098,7.458c0.983,1.009,2.3,1.575,3.708,1.594
		c1.42,0.013,2.74-0.512,3.749-1.495c2.083-2.029,2.127-5.374,0.098-7.457l0,0c-0.983-1.009-2.3-1.575-3.708-1.594
		C222.146,115.576,222.122,115.576,222.099,115.576z" data-fill="c3" style="fill: rgb(179, 180, 180);"></path>
					</g>
				</g>
				<g data-idx="7" data-dup="" dx="128" dy="-128" style="transform-origin: 350.1px -7.15031px; animation: 1s linear 0s infinite normal forwards running beat">
					<g transform="translate(128,-128)">
						<path fill="#B3B4B4" d="M222.104,130.57c-0.044,0-0.088,0-0.132-0.001c-2.596-0.034-5.024-1.077-6.835-2.937
		c-3.74-3.84-3.659-10.006,0.181-13.746c1.86-1.812,4.308-2.785,6.91-2.756c2.596,0.034,5.024,1.078,6.835,2.938
		c3.74,3.839,3.659,10.006-0.181,13.745C227.054,129.594,224.651,130.57,222.104,130.57z M222.099,115.576
		c-1.382,0-2.686,0.53-3.678,1.496c-2.083,2.029-2.127,5.374-0.098,7.458c0.983,1.009,2.3,1.575,3.708,1.594
		c1.42,0.013,2.74-0.512,3.749-1.495c2.083-2.029,2.127-5.374,0.098-7.457l0,0c-0.983-1.009-2.3-1.575-3.708-1.594
		C222.146,115.576,222.122,115.576,222.099,115.576z" data-fill="c3" style="fill: rgb(179, 180, 180);"></path>
					</g>
				</g>
				<g data-idx="8" data-dup="" dx="-128" dy="-128" style="transform-origin: 46.6647px -119.158px; animation: 1s linear 0s infinite normal forwards running beat">
					<g transform="translate(-128,-128)">
						<path fill="#B3B4B4" d="M184.509,10.022l-4.015,1.058c-0.822-3.122-4.032-4.993-7.154-4.17c-1.512,0.398-2.779,1.362-3.567,2.713
		c-0.788,1.352-1.003,2.929-0.603,4.44l-4.015,1.058c-0.681-2.585-0.315-5.28,1.031-7.589c1.346-2.309,3.511-3.956,6.096-4.637
		C177.619,1.489,183.103,4.687,184.509,10.022z" data-fill="c3" style="fill: rgb(179, 180, 180);"></path>
					</g>
				</g>
				<g data-idx="8" data-dup="" dx="128" dy="-128" style="transform-origin: 302.665px -119.158px; animation: 1s linear 0s infinite normal forwards running beat">
					<g transform="translate(128,-128)">
						<path fill="#B3B4B4" d="M184.509,10.022l-4.015,1.058c-0.822-3.122-4.032-4.993-7.154-4.17c-1.512,0.398-2.779,1.362-3.567,2.713
		c-0.788,1.352-1.003,2.929-0.603,4.44l-4.015,1.058c-0.681-2.585-0.315-5.28,1.031-7.589c1.346-2.309,3.511-3.956,6.096-4.637
		C177.619,1.489,183.103,4.687,184.509,10.022z" data-fill="c3" style="fill: rgb(179, 180, 180);"></path>
					</g>
				</g>
				<g data-idx="9" data-dup="t" dx="-128" dy="-128" style="transform-origin: -6.92413px 94.3993px; animation: 1s linear 0s infinite normal forwards running beat">
					<g transform="translate(-128,-128)">
						<g transform="matrix(0.9912 0.1325 -0.1325 0.9912 30.542 -14.083) translate(121.067,222.398) scale(0.6786666666666666)">
							<g data-icon="" transform="scale(0.9)">
								<use xlink:href="#id-0.10001395614851405" x="-50" y="-50"></use>
							</g>
						</g>
					</g>
				</g>
				<g data-idx="9" data-dup="t" dx="128" dy="-128" style="transform-origin: 249.076px 94.3993px; animation: 1s linear 0s infinite normal forwards running beat">
					<g transform="translate(128,-128)">
						<g transform="matrix(0.9912 0.1325 -0.1325 0.9912 30.542 -14.083) translate(121.067,222.398) scale(0.6786666666666666)">
							<g data-icon="" transform="scale(0.9)">
								<use xlink:href="#id-0.10001395614851405" x="-50" y="-50"></use>
							</g>
						</g>
					</g>
				</g>
				<g data-idx="10" data-dup="" dx="-128" dy="-128" style="transform-origin: 33.2569px -52.8258px; animation: 1s linear 0s infinite normal forwards running beat">
					<g transform="translate(-128,-128)">
						<g transform="matrix(-0.0456 0.999 -0.999 -0.0456 243.7065 -82.5047) translate(161.268,75.17099999999999) scale(0.47706666666666664)">
							<g data-icon="" transform="scale(0.9)">
								<use xlink:href="#id-0.10001395614851405" x="-50" y="-50"></use>
							</g>
						</g>
					</g>
				</g>
				<g data-idx="10" data-dup="" dx="128" dy="-128" style="transform-origin: 289.257px -52.8258px; animation: 1s linear 0s infinite normal forwards running beat">
					<g transform="translate(128,-128)">
						<g transform="matrix(-0.0456 0.999 -0.999 -0.0456 243.7065 -82.5047) translate(161.268,75.17099999999999) scale(0.47706666666666664)">
							<g data-icon="" transform="scale(0.9)">
								<use xlink:href="#id-0.10001395614851405" x="-50" y="-50"></use>
							</g>
						</g>
					</g>
				</g>
				<g data-idx="11" data-dup="t" dx="-128" dy="-128" style="transform-origin: 87.3082px 65.0824px; animation: 1s linear 0s infinite normal forwards running beat">
					<g transform="translate(-128,-128)">
						<g transform="matrix(0.5905 -0.8071 0.8071 0.5905 -67.6584 252.8308) translate(215.293,193.0815) scale(0.5214666666666667)">
							<g data-icon="" transform="scale(0.9)">
								<use xlink:href="#id-0.10001395614851405" x="-50" y="-50"></use>
							</g>
						</g>
					</g>
				</g>
				<g data-idx="11" data-dup="t" dx="128" dy="-128" style="transform-origin: 343.308px 65.0824px; animation: 1s linear 0s infinite normal forwards running beat">
					<g transform="translate(128,-128)">
						<g transform="matrix(0.5905 -0.8071 0.8071 0.5905 -67.6584 252.8308) translate(215.293,193.0815) scale(0.5214666666666667)">
							<g data-icon="" transform="scale(0.9)">
								<use xlink:href="#id-0.10001395614851405" x="-50" y="-50"></use>
							</g>
						</g>
					</g>
				</g>
				<g data-idx="12" data-dup="" dx="-128" dy="-128" style="transform-origin: -78.8149px -89.6956px; animation: 1s linear 0s infinite normal forwards running beat">
					<g transform="translate(-128,-128)">
						<g transform="matrix(-0.4749 -0.8801 0.8801 -0.4749 38.8277 99.7848) translate(49.185,38.308499999999995) scale(0.5980444444444444)">
							<g data-icon="" transform="scale(0.9)">
								<use xlink:href="#id-0.10001395614851405" x="-50" y="-50"></use>
							</g>
						</g>
					</g>
				</g>
				<g data-idx="12" data-dup="" dx="128" dy="-128" style="transform-origin: 177.185px -89.6956px; animation: 1s linear 0s infinite normal forwards running beat">
					<g transform="translate(128,-128)">
						<g transform="matrix(-0.4749 -0.8801 0.8801 -0.4749 38.8277 99.7848) translate(49.185,38.308499999999995) scale(0.5980444444444444)">
							<g data-icon="" transform="scale(0.9)">
								<use xlink:href="#id-0.10001395614851405" x="-50" y="-50"></use>
							</g>
						</g>
					</g>
				</g>
				<g data-idx="13" data-dup="" dx="-128" dy="-128" style="transform-origin: -89.5674px 14.2466px; animation: 1s linear 0s infinite normal forwards running beat">
					<g transform="translate(-128,-128)">
						<g transform="matrix(0.7381 -0.6747 0.6747 0.7381 -85.9069 63.1885) translate(38.434,142.243) scale(0.607688888888889)">
							<g data-icon="" transform="scale(0.9)">
								<use xlink:href="#id-0.10001395614851405" x="-50" y="-50"></use>
							</g>
						</g>
					</g>
				</g>
				<g data-idx="13" data-dup="" dx="128" dy="-128" style="transform-origin: 166.433px 14.2466px; animation: 1s linear 0s infinite normal forwards running beat">
					<g transform="translate(128,-128)">
						<g transform="matrix(0.7381 -0.6747 0.6747 0.7381 -85.9069 63.1885) translate(38.434,142.243) scale(0.607688888888889)">
							<g data-icon="" transform="scale(0.9)">
								<use xlink:href="#id-0.10001395614851405" x="-50" y="-50"></use>
							</g>
						</g>
					</g>
				</g>
				<g data-idx="0" data-dup="" dx="-128" dy="128" style="transform-origin: -43.697px 222.765px; animation: 1s linear 0s infinite normal forwards running beat">
					<g transform="translate(-128,128)">
						<polygon fill="#B3B4B4" points="95.261,98.953 73.345,96.2 74.22,90.577 94.461,93.724 " data-fill="c3" style="fill: rgb(179, 180, 180);"></polygon>
					</g>
				</g>
				<g data-idx="0" data-dup="" dx="128" dy="128" style="transform-origin: 212.303px 222.765px; animation: 1s linear 0s infinite normal forwards running beat">
					<g transform="translate(128,128)">
						<polygon fill="#B3B4B4" points="95.261,98.953 73.345,96.2 74.22,90.577 94.461,93.724 " data-fill="c3" style="fill: rgb(179, 180, 180);"></polygon>
					</g>
				</g>
				<g data-idx="1" data-dup="" dx="-128" dy="128" style="transform-origin: -89.899px 341.472px; animation: 1s linear 0s infinite normal forwards running beat">
					<g transform="translate(-128,128)">
						<path fill="#B3B4B4" d="M38.105,224.49c-0.05,0-0.099,0-0.149-0.001c-2.943-0.039-5.694-1.221-7.748-3.33
		c-4.239-4.352-4.147-11.342,0.205-15.581c2.108-2.054,4.884-3.157,7.833-3.124c2.943,0.039,5.694,1.222,7.748,3.33
		c4.239,4.352,4.147,11.342-0.205,15.58C43.716,223.383,40.992,224.49,38.105,224.49z M38.098,207.494
		c-1.567,0-3.044,0.6-4.169,1.695c-2.361,2.3-2.411,6.092-0.111,8.453c1.114,1.144,2.607,1.785,4.204,1.806
		c1.609,0.014,3.106-0.581,4.25-1.695c2.361-2.3,2.411-6.092,0.112-8.453l0,0c-1.114-1.144-2.607-1.785-4.204-1.806
		C38.152,207.494,38.125,207.494,38.098,207.494z" data-fill="c3" style="fill: rgb(179, 180, 180);"></path>
					</g>
				</g>
				<g data-idx="1" data-dup="" dx="128" dy="128" style="transform-origin: 166.101px 341.472px; animation: 1s linear 0s infinite normal forwards running beat">
					<g transform="translate(128,128)">
						<path fill="#B3B4B4" d="M38.105,224.49c-0.05,0-0.099,0-0.149-0.001c-2.943-0.039-5.694-1.221-7.748-3.33
		c-4.239-4.352-4.147-11.342,0.205-15.581c2.108-2.054,4.884-3.157,7.833-3.124c2.943,0.039,5.694,1.222,7.748,3.33
		c4.239,4.352,4.147,11.342-0.205,15.58C43.716,223.383,40.992,224.49,38.105,224.49z M38.098,207.494
		c-1.567,0-3.044,0.6-4.169,1.695c-2.361,2.3-2.411,6.092-0.111,8.453c1.114,1.144,2.607,1.785,4.204,1.806
		c1.609,0.014,3.106-0.581,4.25-1.695c2.361-2.3,2.411-6.092,0.112-8.453l0,0c-1.114-1.144-2.607-1.785-4.204-1.806
		C38.152,207.494,38.125,207.494,38.098,207.494z" data-fill="c3" style="fill: rgb(179, 180, 180);"></path>
					</g>
				</g>
				<g data-idx="2" data-dup="" dx="-128" dy="128" style="transform-origin: 106.49px 175.501px; animation: 1s linear 0s infinite normal forwards running beat">
					<g transform="translate(-128,128)">
						<ellipse transform="matrix(0.7249 -0.6888 0.6888 0.7249 31.7828 174.5914)" fill="#B3B4B4" cx="234.5" cy="47.5" rx="4.4" ry="4.4" data-fill="c3" style="fill: rgb(179, 180, 180);"></ellipse>
					</g>
				</g>
				<g data-idx="2" data-dup="" dx="128" dy="128" style="transform-origin: 362.49px 175.501px; animation: 1s linear 0s infinite normal forwards running beat">
					<g transform="translate(128,128)">
						<ellipse transform="matrix(0.7249 -0.6888 0.6888 0.7249 31.7828 174.5914)" fill="#B3B4B4" cx="234.5" cy="47.5" rx="4.4" ry="4.4" data-fill="c3" style="fill: rgb(179, 180, 180);"></ellipse>
					</g>
				</g>
				<g data-idx="3" data-dup="" dx="-128" dy="128" style="transform-origin: 28.5333px 274.653px; animation: 1s linear 0s infinite normal forwards running beat">
					<g transform="translate(-128,128)">
						<path fill="#B3B4B4" d="M156.299,159.176l-1.714-5.053c3.929-1.333,6.042-5.614,4.709-9.543c-0.645-1.903-1.994-3.442-3.796-4.331
		c-1.803-0.89-3.844-1.024-5.747-0.378l-1.714-5.053c3.254-1.103,6.741-0.874,9.822,0.646c3.08,1.52,5.385,4.149,6.488,7.402
		C166.625,149.582,163.015,156.898,156.299,159.176z" data-fill="c3" style="fill: rgb(179, 180, 180);"></path>
					</g>
				</g>
				<g data-idx="3" data-dup="" dx="128" dy="128" style="transform-origin: 284.533px 274.653px; animation: 1s linear 0s infinite normal forwards running beat">
					<g transform="translate(128,128)">
						<path fill="#B3B4B4" d="M156.299,159.176l-1.714-5.053c3.929-1.333,6.042-5.614,4.709-9.543c-0.645-1.903-1.994-3.442-3.796-4.331
		c-1.803-0.89-3.844-1.024-5.747-0.378l-1.714-5.053c3.254-1.103,6.741-0.874,9.822,0.646c3.08,1.52,5.385,4.149,6.488,7.402
		C166.625,149.582,163.015,156.898,156.299,159.176z" data-fill="c3" style="fill: rgb(179, 180, 180);"></path>
					</g>
				</g>
				<g data-idx="4" data-dup="" dx="-128" dy="128" style="transform-origin: -25.5058px 277.495px; animation: 1s linear 0s infinite normal forwards running beat">
					<g transform="translate(-128,128)">
						<ellipse transform="matrix(0.7249 -0.6888 0.6888 0.7249 -74.7837 111.7244)" fill="#B3B4B4" cx="102.5" cy="149.5" rx="4.4" ry="4.4" data-fill="c3" style="fill: rgb(179, 180, 180);"></ellipse>
					</g>
				</g>
				<g data-idx="4" data-dup="" dx="128" dy="128" style="transform-origin: 230.494px 277.495px; animation: 1s linear 0s infinite normal forwards running beat">
					<g transform="translate(128,128)">
						<ellipse transform="matrix(0.7249 -0.6888 0.6888 0.7249 -74.7837 111.7244)" fill="#B3B4B4" cx="102.5" cy="149.5" rx="4.4" ry="4.4" data-fill="c3" style="fill: rgb(179, 180, 180);"></ellipse>
					</g>
				</g>
				<g data-idx="5" data-dup="" dx="-128" dy="128" style="transform-origin: 114.171px 372.691px; animation: 1s linear 0s infinite normal forwards running beat">
					<g transform="translate(-128,128)">
						<polygon fill="#B3B4B4" points="231.486,249.178 247.065,235.877 252.857,238.786 235.18,253.505 " data-fill="c3" style="fill: rgb(179, 180, 180);"></polygon>
					</g>
				</g>
				<g data-idx="5" data-dup="" dx="128" dy="128" style="transform-origin: 370.171px 372.691px; animation: 1s linear 0s infinite normal forwards running beat">
					<g transform="translate(128,128)">
						<polygon fill="#B3B4B4" points="231.486,249.178 247.065,235.877 252.857,238.786 235.18,253.505 " data-fill="c3" style="fill: rgb(179, 180, 180);"></polygon>
					</g>
				</g>
				<g data-idx="6" data-dup="" dx="-128" dy="128" style="transform-origin: -20.197px 159.069px; animation: 1s linear 0s infinite normal forwards running beat">
					<g transform="translate(-128,128)">
						<polygon fill="#B3B4B4" points="115.367,21.954 103.961,43.014 100.239,36.891 110.431,19.123 " data-fill="c3" style="fill: rgb(179, 180, 180);"></polygon>
					</g>
				</g>
				<g data-idx="6" data-dup="" dx="128" dy="128" style="transform-origin: 235.803px 159.069px; animation: 1s linear 0s infinite normal forwards running beat">
					<g transform="translate(128,128)">
						<polygon fill="#B3B4B4" points="115.367,21.954 103.961,43.014 100.239,36.891 110.431,19.123 " data-fill="c3" style="fill: rgb(179, 180, 180);"></polygon>
					</g>
				</g>
				<g data-idx="7" data-dup="" dx="-128" dy="128" style="transform-origin: 94.1px 248.85px; animation: 1s linear 0s infinite normal forwards running beat">
					<g transform="translate(-128,128)">
						<path fill="#B3B4B4" d="M222.104,130.57c-0.044,0-0.088,0-0.132-0.001c-2.596-0.034-5.024-1.077-6.835-2.937
		c-3.74-3.84-3.659-10.006,0.181-13.746c1.86-1.812,4.308-2.785,6.91-2.756c2.596,0.034,5.024,1.078,6.835,2.938
		c3.74,3.839,3.659,10.006-0.181,13.745C227.054,129.594,224.651,130.57,222.104,130.57z M222.099,115.576
		c-1.382,0-2.686,0.53-3.678,1.496c-2.083,2.029-2.127,5.374-0.098,7.458c0.983,1.009,2.3,1.575,3.708,1.594
		c1.42,0.013,2.74-0.512,3.749-1.495c2.083-2.029,2.127-5.374,0.098-7.457l0,0c-0.983-1.009-2.3-1.575-3.708-1.594
		C222.146,115.576,222.122,115.576,222.099,115.576z" data-fill="c3" style="fill: rgb(179, 180, 180);"></path>
					</g>
				</g>
				<g data-idx="7" data-dup="" dx="128" dy="128" style="transform-origin: 350.1px 248.85px; animation: 1s linear 0s infinite normal forwards running beat">
					<g transform="translate(128,128)">
						<path fill="#B3B4B4" d="M222.104,130.57c-0.044,0-0.088,0-0.132-0.001c-2.596-0.034-5.024-1.077-6.835-2.937
		c-3.74-3.84-3.659-10.006,0.181-13.746c1.86-1.812,4.308-2.785,6.91-2.756c2.596,0.034,5.024,1.078,6.835,2.938
		c3.74,3.839,3.659,10.006-0.181,13.745C227.054,129.594,224.651,130.57,222.104,130.57z M222.099,115.576
		c-1.382,0-2.686,0.53-3.678,1.496c-2.083,2.029-2.127,5.374-0.098,7.458c0.983,1.009,2.3,1.575,3.708,1.594
		c1.42,0.013,2.74-0.512,3.749-1.495c2.083-2.029,2.127-5.374,0.098-7.457l0,0c-0.983-1.009-2.3-1.575-3.708-1.594
		C222.146,115.576,222.122,115.576,222.099,115.576z" data-fill="c3" style="fill: rgb(179, 180, 180);"></path>
					</g>
				</g>
				<g data-idx="8" data-dup="" dx="-128" dy="128" style="transform-origin: 46.6647px 136.842px; animation: 1s linear 0s infinite normal forwards running beat">
					<g transform="translate(-128,128)">
						<path fill="#B3B4B4" d="M184.509,10.022l-4.015,1.058c-0.822-3.122-4.032-4.993-7.154-4.17c-1.512,0.398-2.779,1.362-3.567,2.713
		c-0.788,1.352-1.003,2.929-0.603,4.44l-4.015,1.058c-0.681-2.585-0.315-5.28,1.031-7.589c1.346-2.309,3.511-3.956,6.096-4.637
		C177.619,1.489,183.103,4.687,184.509,10.022z" data-fill="c3" style="fill: rgb(179, 180, 180);"></path>
					</g>
				</g>
				<g data-idx="8" data-dup="" dx="128" dy="128" style="transform-origin: 302.665px 136.842px; animation: 1s linear 0s infinite normal forwards running beat">
					<g transform="translate(128,128)">
						<path fill="#B3B4B4" d="M184.509,10.022l-4.015,1.058c-0.822-3.122-4.032-4.993-7.154-4.17c-1.512,0.398-2.779,1.362-3.567,2.713
		c-0.788,1.352-1.003,2.929-0.603,4.44l-4.015,1.058c-0.681-2.585-0.315-5.28,1.031-7.589c1.346-2.309,3.511-3.956,6.096-4.637
		C177.619,1.489,183.103,4.687,184.509,10.022z" data-fill="c3" style="fill: rgb(179, 180, 180);"></path>
					</g>
				</g>
				<g data-idx="9" data-dup="t" dx="-128" dy="128" style="transform-origin: -6.92413px 350.399px; animation: 1s linear 0s infinite normal forwards running beat">
					<g transform="translate(-128,128)">
						<g transform="matrix(0.9912 0.1325 -0.1325 0.9912 30.542 -14.083) translate(121.067,222.398) scale(0.6786666666666666)">
							<g data-icon="" transform="scale(0.9)">
								<use xlink:href="#id-0.10001395614851405" x="-50" y="-50"></use>
							</g>
						</g>
					</g>
				</g>
				<g data-idx="9" data-dup="t" dx="128" dy="128" style="transform-origin: 249.076px 350.399px; animation: 1s linear 0s infinite normal forwards running beat">
					<g transform="translate(128,128)">
						<g transform="matrix(0.9912 0.1325 -0.1325 0.9912 30.542 -14.083) translate(121.067,222.398) scale(0.6786666666666666)">
							<g data-icon="" transform="scale(0.9)">
								<use xlink:href="#id-0.10001395614851405" x="-50" y="-50"></use>
							</g>
						</g>
					</g>
				</g>
				<g data-idx="10" data-dup="" dx="-128" dy="128" style="transform-origin: 33.2569px 203.174px; animation: 1s linear 0s infinite normal forwards running beat">
					<g transform="translate(-128,128)">
						<g transform="matrix(-0.0456 0.999 -0.999 -0.0456 243.7065 -82.5047) translate(161.268,75.17099999999999) scale(0.47706666666666664)">
							<g data-icon="" transform="scale(0.9)">
								<use xlink:href="#id-0.10001395614851405" x="-50" y="-50"></use>
							</g>
						</g>
					</g>
				</g>
				<g data-idx="10" data-dup="" dx="128" dy="128" style="transform-origin: 289.257px 203.174px; animation: 1s linear 0s infinite normal forwards running beat">
					<g transform="translate(128,128)">
						<g transform="matrix(-0.0456 0.999 -0.999 -0.0456 243.7065 -82.5047) translate(161.268,75.17099999999999) scale(0.47706666666666664)">
							<g data-icon="" transform="scale(0.9)">
								<use xlink:href="#id-0.10001395614851405" x="-50" y="-50"></use>
							</g>
						</g>
					</g>
				</g>
				<g data-idx="11" data-dup="t" dx="-128" dy="128" style="transform-origin: 87.3082px 321.082px; animation: 1s linear 0s infinite normal forwards running beat">
					<g transform="translate(-128,128)">
						<g transform="matrix(0.5905 -0.8071 0.8071 0.5905 -67.6584 252.8308) translate(215.293,193.0815) scale(0.5214666666666667)">
							<g data-icon="" transform="scale(0.9)">
								<use xlink:href="#id-0.10001395614851405" x="-50" y="-50"></use>
							</g>
						</g>
					</g>
				</g>
				<g data-idx="11" data-dup="t" dx="128" dy="128" style="transform-origin: 343.308px 321.082px; animation: 1s linear 0s infinite normal forwards running beat">
					<g transform="translate(128,128)">
						<g transform="matrix(0.5905 -0.8071 0.8071 0.5905 -67.6584 252.8308) translate(215.293,193.0815) scale(0.5214666666666667)">
							<g data-icon="" transform="scale(0.9)">
								<use xlink:href="#id-0.10001395614851405" x="-50" y="-50"></use>
							</g>
						</g>
					</g>
				</g>
				<g data-idx="12" data-dup="" dx="-128" dy="128" style="transform-origin: -78.8149px 166.304px; animation: 1s linear 0s infinite normal forwards running beat">
					<g transform="translate(-128,128)">
						<g transform="matrix(-0.4749 -0.8801 0.8801 -0.4749 38.8277 99.7848) translate(49.185,38.308499999999995) scale(0.5980444444444444)">
							<g data-icon="" transform="scale(0.9)">
								<use xlink:href="#id-0.10001395614851405" x="-50" y="-50"></use>
							</g>
						</g>
					</g>
				</g>
				<g data-idx="12" data-dup="" dx="128" dy="128" style="transform-origin: 177.185px 166.304px; animation: 1s linear 0s infinite normal forwards running beat">
					<g transform="translate(128,128)">
						<g transform="matrix(-0.4749 -0.8801 0.8801 -0.4749 38.8277 99.7848) translate(49.185,38.308499999999995) scale(0.5980444444444444)">
							<g data-icon="" transform="scale(0.9)">
								<use xlink:href="#id-0.10001395614851405" x="-50" y="-50"></use>
							</g>
						</g>
					</g>
				</g>
				<g data-idx="13" data-dup="" dx="-128" dy="128" style="transform-origin: -89.5674px 270.247px; animation: 1s linear 0s infinite normal forwards running beat">
					<g transform="translate(-128,128)">
						<g transform="matrix(0.7381 -0.6747 0.6747 0.7381 -85.9069 63.1885) translate(38.434,142.243) scale(0.607688888888889)">
							<g data-icon="" transform="scale(0.9)">
								<use xlink:href="#id-0.10001395614851405" x="-50" y="-50"></use>
							</g>
						</g>
					</g>
				</g>
				<g data-idx="13" data-dup="" dx="128" dy="128" style="transform-origin: 166.433px 270.247px; animation: 1s linear 0s infinite normal forwards running beat">
					<g transform="translate(128,128)">
						<g transform="matrix(0.7381 -0.6747 0.6747 0.7381 -85.9069 63.1885) translate(38.434,142.243) scale(0.607688888888889)">
							<g data-icon="" transform="scale(0.9)">
								<use xlink:href="#id-0.10001395614851405" x="-50" y="-50"></use>
							</g>
						</g>
					</g>
				</g>
			</g>
		</pattern>
	</defs>
	<rect x="0" y="0" width="1084" height="322" fill="url(#pid-0.6519998159041709)"></rect>
	<style>
		@keyframes beat{
			0% {
				animation-timing-function: cubic-bezier(0.1028,0.2484,0.1372,0.849);
				transform: scale(1);
			}
			34% {
				animation-timing-function: cubic-bezier(0.7116,0.2095,0.8159,0.6876);
				transform: scale(1.2);
			}
			68% {
				animation-timing-function: cubic-bezier(0.1475,0.2888,0.294,0.883);
				transform: scale(1.0268);
			}
			84% {
				animation-timing-function: cubic-bezier(0.8176,0.2193,0.867,0.6889);
				transform: scale(1.0932);
			}
			100% {
				transform: scale(1);
			}
		}
	</style>
</svg>
