<?xml version="1.0" encoding="utf-8"?><!--Generator: Adobe Illustrator 23.0.6, SVG Export Plug-In . SVG Version: 6.00 Build 0)--><svg version="1.1" id="圖層_1" xmlns="http://www.w3.org/2000/svg" xmlns:xlink="http://www.w3.org/1999/xlink" x="0px" y="0px" viewBox="0 0 128 128" style="enable-background:new 0 0 128 128" xml:space="preserve"><style type="text/css">.st0{fill:none}.st1,.st2,.st3,.st4,.st5{fill:#f2f2f2;stroke:#000;stroke-width:3;stroke-miterlimit:10}.st2,.st3,.st4,.st5{fill:#d9b621}.st3,.st4,.st5{fill:#fcee21}.st4,.st5{fill:#f15a24}.st5{fill:none}</style><path class="st0" d="z"/><g><path class="st1" d="M103.1,99c2.7-1.5,3.6-5.1,1.9-8.1l-9.9,5.5C96.9,99.4,100.4,100.6,103.1,99z"/><path class="st2" d="M101.3,52.4c-5.8-10-18.6-13.4-28.7-7.7s-13.4,18.6-7.7,28.7l2.9,3.8c3.7,4.9,6.5,10.4,8.4,16.1 c0.4,1.4,1.4,2.8,1.7,5c0.4,3.3-0.9,4.7-0.4,5.5c1.5,1.8,11.3-4.5,23.3-11.5c10.9-6.1,20.1-10.9,19.3-13.2 c-0.3-0.8-1.5-0.6-3.7-2.2c-2.2-1.5-3.1-3.6-4.2-4.9c-3.8-4.5-6.9-9.5-9.1-14.8C103.2,57.3,101.3,52.4,101.3,52.4z"/><path class="st2" d="M95.8,46.5c-3.3,5-8.3,9.7-14.6,13.3c-6.4,3.7-13.1,5.6-19.2,6"/><path class="st2" d="M107.9,67.5c-3.5,5-8.6,9.9-15,13.6c-6.5,3.8-13.4,5.9-19.6,6.3"/><path class="st2" d="M112.4,71.9c-3.7,5.2-9.2,10.2-16.1,14.2c-6.9,4-14.2,6.3-20.7,6.9"/></g><g><path class="st1" d="M27.9,97.2c2.7,1.5,6.3,0.5,7.9-2.3l-9.7-5.8C24.4,92.1,25.2,95.7,27.9,97.2z"/><path class="st3" d="M67.3,72.2c5.8-10,2.3-22.8-7.7-28.7s-22.9-2.4-28.7,7.7L29,55.7c-2.4,5.6-5.6,10.9-9.9,15.4 c-0.9,1-1.8,2.7-3.6,4c-2.7,1.9-4.6,1.5-4.9,2.4c-0.8,2.2,9.5,7.4,21.6,14.5c10.8,6.3,19.5,12,21.1,10.2c0.5-0.6-0.3-1.5,0-4.2 c0.3-2.7,1.5-4.4,2.2-6.1c1.9-5.5,4.7-10.8,8.3-15.4L67.3,72.2z"/><path class="st3" d="M69.7,64.6c-6-0.4-12.5-2.4-18.8-6C44.5,54.8,39.4,50,36,45"/><path class="st3" d="M57.5,85.6C51.4,85,44.7,83,38.3,79.3c-6.5-3.8-11.8-8.7-15.2-13.8"/><path class="st3" d="M56,91.7c-6.4-0.6-13.4-2.9-20.4-6.9c-6.9-4-12.5-9.1-16.4-14.5"/></g><g><path class="st4" d="M61,68.8c-2.7-9.1-8.7-4-10.1-2.7c-0.1,0.1-0.3,0-0.3-0.1c-0.4-3.3-0.6-8.8,1.3-15.2c1.5-5.1,3.8-9,5.6-11.3 c3.5,0.9,7,1.8,10.5,2.8C68,42.3,61.9,65.4,61,68.8C61.3,68.9,61.1,68.9,61,68.8z"/><path class="st4" d="M81,65.1c-0.6-9.5,6.8-6.8,8.6-6c0.1,0,0.3-0.1,0.1-0.1c-0.8-3.2-2.4-8.4-6.5-13.8c-3.2-4.2-6.7-7-9.2-8.7 l-8.8,6.1c0,0,13.7,19.7,15.7,22.5C80.8,65.2,81,65.2,81,65.1z"/><g><path class="st4" d="M87.9,17.2c2.8-0.4,5.5,1.5,5.9,4.4l1.8,12.5c0.4,2.8-1.5,5.5-4.4,5.9c0,0-18,0.3-18.6-2.6l-1.8-12.5 C70.4,22,87.9,17.2,87.9,17.2z"/><path class="st4" d="M36.8,24.7c-2.8,0.4-4.9,3.1-4.4,5.9l1.9,12.5c0.4,2.8,3.1,4.9,5.9,4.4c0,0,17.4-5,17-7.8l-2-12.4 C54.9,24.5,36.8,24.7,36.8,24.7z"/><ellipse transform="matrix(0.5483 -0.8363 0.8363 0.5483 1.7327 68.0184)" class="st4" cx="63.8" cy="32.4" rx="9.9" ry="10.1"/><path class="st5" d="M36,46.2c6.3-5.5,13.1-7.6,20.4-6.5"/><path class="st5" d="M73.3,37.3c8.2-2.2,15.1-1.8,20.9,1"/></g></g><path class="st0" d="z"/><metadata xmlns:d="https://loading.io/stock/">
<d:name>bell</d:name>
<d:tags>bell,christmas bells,ring,jingle bells,bow</d:tags>
<d:license>by</d:license>
<d:slug>oumem0</d:slug>
</metadata></svg>