<?xml version="1.0"?><svg xmlns="http://www.w3.org/2000/svg" viewBox="0 0 100 100"><g><path fill="#93278f" stroke="#000" stroke-width="3.0000599999999995" stroke-linecap="round" stroke-linejoin="round" stroke-miterlimit="10" d="M58.993 14.37l4.8-2.249 4.88 10.413-4.8 2.25z"/><path fill="#93278f" stroke="#000" stroke-width="3.0000599999999995" stroke-linecap="round" stroke-linejoin="round" stroke-miterlimit="10" d="M70.754 24.875l-4.799-2.25 4.88-10.412 4.8 2.249z"/><path fill="#d4145a" stroke="#000" stroke-width="3" stroke-linecap="round" stroke-linejoin="round" stroke-miterlimit="10" d="M81.173 26.13v29.6h-29.6v-29.6z"/><path fill="#d4145a" stroke="#000" stroke-width="3" stroke-linecap="round" stroke-linejoin="round" stroke-miterlimit="10" d="M48.4 23.5h37.4V29H48.4z"/><path fill="#d9e021" stroke="#000" stroke-width="3" stroke-linecap="round" stroke-linejoin="round" stroke-miterlimit="10" d="M63.9 24.1h5v5h-5z"/><path fill="#93278f" stroke="#000" stroke-width="3" stroke-linecap="round" stroke-linejoin="round" stroke-miterlimit="10" d="M61.2 29h10.5v26.7H61.2z"/></g><g><path fill="#39b54a" stroke="#000" stroke-width="2.99988" stroke-linecap="round" stroke-linejoin="round" stroke-miterlimit="10" d="M30.626 35.123l3.18-2.895 6.26 6.878L36.885 42z"/><path fill="#39b54a" stroke="#000" stroke-width="3.00003" stroke-linecap="round" stroke-linejoin="round" stroke-miterlimit="10" d="M42.114 40.419l-4.259-.592 1.28-9.212 4.259.592z"/><path fill="#fbb03b" stroke="#000" stroke-width="3.0000599999999995" stroke-linecap="round" stroke-linejoin="round" stroke-miterlimit="10" d="M50.494 38.895l7.037 22.736-22.736 7.038-7.038-22.736z"/><path fill="#f7931e" stroke="#000" stroke-width="3.0000599999999995" stroke-linecap="round" stroke-linejoin="round" stroke-miterlimit="10" d="M24.125 44.963l28.754-8.9 1.301 4.203-28.754 8.9z"/><path fill="#d9e021" stroke="#000" stroke-width="3.0000599999999995" stroke-linecap="round" stroke-linejoin="round" stroke-miterlimit="10" d="M36.694 41.381l3.821-1.183 1.183 3.821-3.821 1.183z"/><path fill="#39b54a" stroke="#000" stroke-width="3.0000599999999995" stroke-linecap="round" stroke-linejoin="round" stroke-miterlimit="10" d="M35.794 45.827l8.024-2.484 6.358 20.54-8.025 2.483z"/></g><g><path fill="#c69c6d" stroke="#000" stroke-width="3" stroke-linecap="round" stroke-linejoin="round" stroke-miterlimit="10" d="M76.421 84.394h-8v-8h8z"/><path fill="#c69c6d" stroke="#000" stroke-width="3" stroke-linecap="round" stroke-linejoin="round" stroke-miterlimit="10" d="M35.6 75.4h8v8h-8z"/><path d="M87.6 53.5c0-2.8-2.2-5-5-5H65.9c-8 0-14.5 6.5-14.5 14.5v0h-6.2c-.9 0-1.7-.8-1.7-1.7v0c0-.9-.8-1.7-1.7-1.7H29.3c-1.8 0-3.3 1.5-3.3 3.3v8.2c0 3 2.4 5.4 5.4 5.4H77c3 0 5.4-2.4 5.4-5.4V53.5h5.2z" fill="#c69c6d" stroke="#000" stroke-width="3" stroke-linecap="round" stroke-linejoin="round" stroke-miterlimit="10"/><path d="M19.4 83.1l-6.8-6.8c-1-.5-2.2-.1-2.8.9-.6.9-.7 2.2-.2 3.3.2.4 5.4 5.4 6.1 6.1.7.7 1.3 1.2 2.1 1.3 1.1.1 2.2 0 3.3 0h67.6c1.2.1 2.2-1 2.2-2.3 0-1.3-1-2.6-2.2-2.5H19.4z" fill="#c69c6d" stroke="#000" stroke-width="3" stroke-linecap="round" stroke-linejoin="round" stroke-miterlimit="10"/></g><metadata xmlns:d="https://loading.io/stock/">
<d:name>sleigh</d:name>
<d:tags>sleigh,gift,santa,christmas,sled</d:tags>
<d:license>by</d:license>
<d:slug>4wstk1</d:slug>
</metadata></svg>