<?xml version="1.0" encoding="utf-8"?><!--Generator: Adobe Illustrator 23.0.6, SVG Export Plug-In . SVG Version: 6.00 Build 0)--><svg version="1.1" id="圖層_1" xmlns="http://www.w3.org/2000/svg" xmlns:xlink="http://www.w3.org/1999/xlink" x="0px" y="0px" viewBox="0 0 128 128" style="enable-background:new 0 0 128 128" xml:space="preserve"><style type="text/css">.st0{fill:none}.st1{fill:#8c6239}.st2,.st3{stroke-width:3}.st2{stroke:#000;stroke-linecap:round;stroke-miterlimit:10;fill:#603813}.st3{fill:#c69c6d}.st3,.st4,.st5{stroke:#000;stroke-linecap:round;stroke-miterlimit:10}.st4{fill:#fff;stroke-width:3}.st5{stroke-width:2}</style><path class="st0" d="z"/><g><path class="st1" d="M68,23.6l7.7,7.3c0.6,0.6,1.8,0.4,2-0.5l1.9-5.2c0.1-0.5,0-1-0.3-1.4l-9.3-9c-0.5-0.5-0.5-1.3,0-1.8l0.3-0.3 c0.5-0.5,1.3-0.5,1.8,0l7.7,7.3c0.6,0.6,1.8,0.4,2-0.5l0.9-2.4c0.3-0.6,1-1,1.7-0.8c0.6,0.3,1,1,0.8,1.7l-0.9,2.4 c-0.4,0.9,0.4,1.8,1.3,1.8L96,21.8c0.8,0,1.3,0.5,1.3,1.3v0.4c0,0.8-0.5,1.3-1.3,1.3l-12.8,0.5c-0.5,0-1,0.4-1.2,0.8l-1.9,5.2 c-0.4,0.9,0.4,1.8,1.3,1.8l10.5-0.4c0.8,0,1.3,0.5,1.3,1.3v0.4c0,0.8-0.5,1.3-1.3,1.3l-12.8,0.5c-0.5,0-1,0.4-1.2,0.8L76,42.1 c-0.3,0.6-1,1-1.7,0.8s-1-1-0.8-1.7l1.9-5.2c0.1-0.5,0-1-0.3-1.4l-9.3-9c-0.5-0.5-0.5-1.3,0-1.8l0.3-0.3C66.7,23,67.5,23,68,23.6z"/><path class="st1" d="M59.8,23.6l-7.7,7.3c-0.6,0.6-1.8,0.4-2-0.5l-1.9-5.2c-0.1-0.5,0-1,0.3-1.4l9.3-9c0.5-0.5,0.5-1.3,0-1.8 l-0.3-0.3c-0.5-0.5-1.3-0.5-1.8,0L48,20c-0.6,0.6-1.8,0.4-2-0.5L45.1,17c-0.3-0.6-1-1-1.7-0.8c-0.6,0.3-1,1-0.8,1.7l0.9,2.4 c0.4,0.9-0.4,1.8-1.3,1.8l-10.5-0.4c-0.8,0-1.3,0.5-1.3,1.3v0.4c0,0.8,0.5,1.3,1.3,1.3l12.8,0.5c0.5,0,1,0.4,1.2,0.8l1.9,5.2 c0.4,0.9-0.4,1.8-1.3,1.8l-10.5-0.4c-0.8,0-1.3,0.5-1.3,1.3v0.4c0,0.8,0.5,1.3,1.3,1.3l12.8,0.5c0.5,0,1,0.4,1.2,0.8l1.9,5.2 c0.3,0.6,1,1,1.7,0.8c0.6-0.3,1-1,0.8-1.7L52.2,36c-0.1-0.5,0-1,0.3-1.4l9.3-9c0.5-0.5,0.5-1.3,0-1.8l-0.3-0.3 C61.1,23,60.3,23,59.8,23.6z"/></g><g><ellipse transform="matrix(0.8404 -0.5419 0.5419 0.8404 -9.8095 58.8361)" class="st2" cx="95" cy="46.1" rx="10.1" ry="6.1"/><ellipse transform="matrix(0.5419 -0.8404 0.8404 0.5419 -22.5712 48.2489)" class="st2" cx="33" cy="44.8" rx="6.1" ry="10.1"/><g><path class="st3" d="M94.3,77.4c-0.1-20.9-14.2-37.8-31.5-37.8c-17.4,0-31.5,16.9-31.6,37.9C54.1,71.7,75.4,71,94.3,77.4z"/><path class="st4" d="M62.8,115.7c17.4,0,31.6-17,31.6-38v-0.3c-19.1-6.4-40.3-5.8-63.1,0.1v0.1C31.2,98.7,45.4,115.7,62.8,115.7z"/></g><path class="st5" d="M71.8,67.6c-1.8,0-3.2-1.4-3.2-3.2c0-1.8,1.5-3.2,3.3-3.3c1.8,0,3.2,1.4,3.2,3.2C75,66,73.6,67.6,71.8,67.6z"/><ellipse class="st3" cx="63" cy="87.4" rx="7.6" ry="4.4"/><path class="st5" d="M52.2,61.8c1.4-1.2,3.5-0.9,4.6,0.4c1.2,1.4,0.9,3.5-0.5,4.6c-1.4,1.2-3.5,0.9-4.6-0.4 C50.6,65,50.8,63,52.2,61.8z"/></g><path class="st0" d="z"/><metadata xmlns:d="https://loading.io/stock/">
<d:name>reindeer</d:name>
<d:tags>reindeer,christmas,animal,santa,deer</d:tags>
<d:license>by</d:license>
<d:slug>1dld75</d:slug>
</metadata></svg>