<?xml version="1.0" encoding="utf-8"?><!--Generator: Adobe Illustrator 23.0.6, SVG Export Plug-In . SVG Version: 6.00 Build 0)--><svg version="1.1" id="圖層_1" xmlns="http://www.w3.org/2000/svg" xmlns:xlink="http://www.w3.org/1999/xlink" x="0px" y="0px" viewBox="0 0 128 128" style="enable-background:new 0 0 128 128" xml:space="preserve"><style type="text/css">.st0{fill:none}.st1{fill:#ffb281;stroke:#000;stroke-width:3;stroke-miterlimit:10}.st2{fill:#fff}.st2,.st3{stroke:#000;stroke-width:3;stroke-miterlimit:10}.st4{fill:#fff;stroke-linecap:round;stroke-linejoin:round}.st4,.st5,.st6,.st7{stroke:#000;stroke-width:3;stroke-miterlimit:10}.st5{stroke-linecap:round;fill:none}.st6{fill:red}.st7{fill:#ed1c24}</style><path class="st0" d="z"/><g><path class="st1" d="M92.7,63c-1,0-1.9,0.1-2.8,0.5c0,0-0.9-10.8-0.9-11.5c0-9.1-12.5-16.5-27.9-16.5c-15.4,0-27.9,7.4-27.9,16.5 c0,0.8-0.7,11.5-0.7,11.5c-0.9-0.3-1.9-0.5-2.8-0.5c-4.7,0-8.6,3.6-8.6,7.9s3.8,7.9,8.6,7.9c1,0,1.9-0.1,2.8-0.5v2.3 c0,3.8,3.6,6.9,8.1,6.9h41.3c4.5,0,8.1-3.1,8.1-6.9v-2.2c0.9,0.3,1.9,0.5,2.8,0.5c4.7,0,8.6-3.6,8.6-7.9 C101.4,66.6,97.4,63,92.7,63z"/><path class="st2" d="M89.5,85.4c0.8-4.9,0.9-9.3,0.9-12.9c0-5.2-0.5-9.7-1-13.4h-5.1c0.8,5.1,1,9.7,1,13.4c0,4.7-0.4,8.8-0.9,12.3 h1C86.8,84.7,88.2,85,89.5,85.4z"/><ellipse class="st3" cx="50.3" cy="70.5" rx="2.3" ry="2"/><ellipse class="st3" cx="69.1" cy="70.5" rx="2.3" ry="2"/><path class="st2" d="M38.1,84.7c-0.6-4.6-0.9-8.8-0.9-12.3c0-5.2,0.5-9.7,1-13.4H33c-0.5,3.5-1,7.6-1,12.2 c-0.1,5.6,0.4,10.4,1,14.3c1.4-0.5,2.8-0.8,4.4-0.8C37.4,84.7,38.1,84.7,38.1,84.7z"/><path class="st4" d="M97.3,89.9c-1.8-7.6-9.1-13.4-16.3-12.5c-4.5,0.5-7.6,3.5-8.7,4.7c-1.2-1-3.1-2.2-5.5-3.2 c-0.6-0.3-3.5-1.3-6.8-1.2C53.4,77.8,48.5,82,47,83.5c-1.3-1.3-5.1-4.7-10.6-4.7c-7,0-15.5,5.6-15.5,14.1c0,7,5.6,12.8,13.1,13.8 c0.6,4.6,5.2,8.2,10.8,8.2c2.2,0,4.2-0.5,5.9-1.5c0.1,0.3,3.6,5.2,9.2,4.6c4.4-0.5,6.8-4.1,7.2-4.6c1.9,1.8,4.7,2.8,7.8,2.8 c5.5,0,10-3.5,10.8-7.9c1.5,0.1,3.8,0.1,6-1C96.9,104.3,98.8,96.1,97.3,89.9z"/><path class="st5" d="M51.5,93.6c0.3,0.3,4.5,4.7,11,4c4.7-0.5,7.3-3.5,7.8-4"/><circle class="st6" cx="60.5" cy="79.5" r="5.1"/></g><g><path class="st7" d="M96,25.2c-2.2-2.9-7.4-9.3-16.8-12.8c-14.3-5.5-27,0.3-28.9,1.2c-2.2,0.9-19.6,9.2-19.2,22.3 c0.4,12.2,15.7,21,28.4,22c13.8,1,23.8-7.6,26.1-9.6c1.7-0.3,6.7-0.5,11.5,2.6c2.7,1.7,4.2,3.7,5.1,5.1 C102.9,53.1,105.5,38.3,96,25.2z"/><path class="st2" d="M84.9,59H35.3c-5,0-9-4-9-9v-0.1c0-5,4-9,9-9h49.5c5,0,9,4,9,9V50C93.8,54.9,89.9,59,84.9,59z"/><ellipse class="st2" cx="101.6" cy="60.8" rx="5.5" ry="4.7"/></g><path class="st0" d="z"/><metadata xmlns:d="https://loading.io/stock/">
<d:name>santa claus</d:name>
<d:tags>santa claus,christmas,happiness,festival,santa</d:tags>
<d:license>by</d:license>
<d:slug>2e4qgy</d:slug>
</metadata></svg>