<?xml version="1.0" encoding="utf-8"?><!--Generator: Adobe Illustrator 23.0.6, SVG Export Plug-In . SVG Version: 6.00 Build 0)--><svg version="1.1" id="圖層_1" xmlns="http://www.w3.org/2000/svg" xmlns:xlink="http://www.w3.org/1999/xlink" x="0px" y="0px" viewBox="0 0 128 128" style="enable-background:new 0 0 128 128" xml:space="preserve"><style type="text/css">.st0{fill:none}.st1{stroke-linejoin:round}.st1,.st2{fill:none;stroke:#000;stroke-width:3;stroke-linecap:round;stroke-miterlimit:10}</style><path class="st0" d="z"/><path class="st1" d="M52.4,57.2v13.6L64,77.4l11.6-6.7V57.2L64,50.6L52.4,57.2z"/><g><path class="st2" d="M75.1,21.1L64.5,32l-11-10.6"/><path class="st2" d="M64.3,12.8v36.1"/><path class="st2" d="M32.4,32.9l4.1,14.7l-14.6,4.1"/><path class="st2" d="M19.8,38.1l31.2,18"/><path class="st2" d="M21.2,75.9l14.8,3.7l-3.8,14.7"/><path class="st2" d="M19.6,89.3l31.1-18"/><path class="st2" d="M52.9,106.9L63.5,96l11,10.6"/><path class="st2" d="M63.7,115.2V79.1"/><path class="st2" d="M95.6,95.1l-4.1-14.7l14.6-4.1"/><path class="st2" d="M108.2,89.9l-31.2-18"/><path class="st2" d="M106.8,52.1l-14.8-3.7l3.8-14.7"/><path class="st2" d="M108.4,38.7l-31.1,18"/></g><g><g><path class="st2" d="M55.3,33.7l-2.9,9.7l-9.7-3.1"/><path class="st2" d="M46.3,32l11,21.5"/></g><g><path class="st2" d="M32.5,56.1l6.9,7.6l-7.6,6.9"/><path class="st2" d="M26.5,63l24.2,1.3"/></g><g><path class="st2" d="M40.4,87.2l10-2.3l2.2,10"/><path class="st2" d="M43.5,95.7l13.2-20.2"/></g><g><path class="st2" d="M71.4,95.7l2.9-9.7l9.7,2.9"/><path class="st2" d="M80.4,97.3l-11-21.4"/></g><g><path class="st2" d="M94.2,73.2l-6.9-7.4l7.6-6.9"/><path class="st2" d="M100.1,66.3L76,65"/></g><g><path class="st2" d="M86.3,42.2l-10,2.2l-2.3-10"/><path class="st2" d="M83.2,33.5L70,53.9"/></g></g><path class="st0" d="z"/><metadata xmlns:d="https://loading.io/stock/">
<d:name>snow flake</d:name>
<d:tags>snow flake,freeze,christmas,winter,ice</d:tags>
<d:license>by</d:license>
<d:slug>7tu0ak</d:slug>
</metadata></svg>